<?xml version="1.0" encoding="utf-8"?>
<!-- Generator: Adobe Illustrator 22.1.0, SVG Export Plug-In . SVG Version: 6.00 Build 0)  -->
<svg version="1.1" id="Layer_1" xmlns="http://www.w3.org/2000/svg" xmlns:xlink="http://www.w3.org/1999/xlink" x="0px" y="0px"
	 width="693px" height="700px" viewBox="0 0 693 700" enable-background="new 0 0 693 700" xml:space="preserve">
<title>FKNat_Case_v2</title>
<path id="rect3977-3" fill="none" stroke="#4D4D4D" stroke-width="0.35" stroke-linejoin="round" d="M56.293,291.745
	c-10.263,0-18.621,9.832-18.621,21.967H29.42c-1.27,0-2.328,1.843-2.328,3.994l0,0v6.145c0,2.151,1.058,3.994,2.222,3.994l0,0H83.06
	c1.27,0,2.328-1.69,2.328-3.994l0,0v-6.145c0-2.304-1.058-3.994-2.328-3.994h-8.252C74.913,301.577,66.555,291.745,56.293,291.745z"
	/>
<g id="text5769">
	<path id="path3536" d="M70.102,338.29v-0.96c0.32,0.16,0.64,0.32,1.04,0.4c0.32,0.08,0.64,0.16,0.88,0.16c0.4,0,0.88-0.08,1.2-0.32
		c0.24-0.16,0.4-0.48,0.4-0.88c0-0.24-0.08-0.56-0.32-0.72c-0.32-0.24-0.64-0.32-1.04-0.4l-0.56-0.08
		c-0.56-0.08-1.12-0.32-1.52-0.72c-0.32-0.4-0.56-0.88-0.48-1.36c0-0.56,0.24-1.2,0.72-1.52c0.56-0.4,1.28-0.56,2-0.56
		c0.32,0,0.72,0.08,1.04,0.08c0.4,0.08,0.8,0.16,1.12,0.32v1.04c-0.32-0.24-0.72-0.4-1.12-0.48c-0.32-0.08-0.72-0.16-1.12-0.16
		s-0.88,0.08-1.28,0.32c-0.32,0.24-0.48,0.56-0.48,0.88s0.08,0.56,0.32,0.8c0.32,0.24,0.64,0.4,1.04,0.4l0.56,0.08
		c0.56,0.08,1.12,0.32,1.52,0.64c0.32,0.32,0.48,0.8,0.48,1.28c0,0.56-0.24,1.12-0.64,1.44c-0.48,0.4-1.12,0.56-1.76,0.56
		c-0.32,0-0.64,0-1.04-0.08C70.742,338.45,70.422,338.37,70.102,338.29"/>
	<path id="path3538" d="M67.222,337.65v-5.44h-1.12c-0.8-0.08-1.52,0.16-2.08,0.64c-0.88,1.2-0.88,2.88,0,4.16
		c0.56,0.48,1.36,0.72,2.08,0.64L67.222,337.65 M68.182,338.45h-2c-1.04,0.08-2.16-0.24-2.96-0.88c-1.28-1.52-1.28-3.76,0-5.28
		c0.88-0.64,1.92-0.96,2.96-0.88h1.92v7.04"/>
	<path id="path3540" d="M52.502,337.97v-0.96c0.32,0.32,0.64,0.48,1.04,0.64s0.72,0.24,1.12,0.24c0.72,0.08,1.36-0.24,1.84-0.72
		c0.88-1.28,0.88-2.96,0-4.24c-0.48-0.48-1.12-0.8-1.84-0.72c-0.4,0-0.8,0.08-1.12,0.24c-0.4,0.16-0.72,0.4-1.04,0.64v-0.96
		c0.32-0.24,0.64-0.4,1.04-0.48s0.8-0.16,1.2-0.16c0.96-0.08,1.84,0.32,2.48,0.96c1.2,1.6,1.2,3.76,0,5.28
		c-0.64,0.64-1.6,1.04-2.48,0.96c-0.4,0-0.8-0.08-1.2-0.16C53.142,338.37,52.822,338.13,52.502,337.97"/>
	<path id="path3542" d="M48.662,334.13c0.48,0,0.96-0.08,1.44-0.24c0.24-0.16,0.4-0.48,0.4-0.8c0-0.24-0.08-0.56-0.32-0.72
		c-0.24-0.16-0.48-0.24-0.8-0.24c-0.4,0-0.88,0.16-1.12,0.48c-0.32,0.4-0.48,0.88-0.48,1.36v0.16L48.662,334.13 M46.982,334.53
		v-3.04h0.88v0.8c0.16-0.32,0.4-0.56,0.72-0.72s0.72-0.24,1.12-0.24c0.48,0,0.96,0.16,1.28,0.48s0.48,0.72,0.48,1.2
		s-0.16,1.04-0.56,1.36c-0.56,0.32-1.12,0.48-1.76,0.48h-1.2v0.08c0,0.32,0.16,0.72,0.4,0.96c0.32,0.24,0.72,0.32,1.12,0.32
		c0.32,0,0.56,0,0.88-0.08c0.24-0.08,0.56-0.16,0.8-0.32v0.8c-0.32,0.08-0.64,0.24-0.88,0.24c-0.32,0.08-0.56,0.08-0.88,0.08
		c-0.64,0.08-1.2-0.16-1.68-0.56C47.062,335.81,46.902,335.17,46.982,334.53"/>
	<path id="path3544" d="M42.102,335.97c0.08,0.08,0.24,0.08,0.32,0.16c0.16,0,0.24,0,0.4,0.08c0.4,0,0.88-0.16,1.12-0.48
		c0.32-0.4,0.4-0.88,0.4-1.36v-2.8h0.88v5.2h-0.88v-0.8c-0.16,0.32-0.4,0.56-0.72,0.72s-0.72,0.24-1.04,0.24h-0.16h-0.24
		L42.102,335.97"/>
	<path id="path3546" d="M37.942,335.97v2.88h-0.88v-7.28h0.88v0.8c0.16-0.32,0.4-0.56,0.72-0.72s0.64-0.24,0.96-0.24
		c0.64,0,1.2,0.32,1.52,0.8c0.8,1.2,0.8,2.8,0,4c-0.32,0.48-0.96,0.8-1.52,0.8c-0.32,0-0.72-0.08-0.96-0.24
		c-0.32-0.16-0.56-0.4-0.72-0.72 M40.902,334.21c0-0.56-0.08-1.04-0.4-1.52c-0.24-0.32-0.64-0.56-1.12-0.56
		c-0.4,0-0.8,0.16-1.04,0.56c-0.32,0.48-0.4,0.96-0.4,1.52s0.08,1.04,0.4,1.52c0.24,0.32,0.64,0.56,1.04,0.56s0.8-0.16,1.12-0.56
		C40.742,335.25,40.902,334.69,40.902,334.21"/>
</g>
<path id="rect3190-2" fill="none" stroke="#4D4D4D" stroke-width="0.35" stroke-linejoin="round" d="M89.964,321.776h33.144
	c0.478-0.052,0.896,0.258,0.956,0.672v19.649c-0.059,0.414-0.478,0.724-0.956,0.672H89.964c-0.478,0.052-0.896-0.258-0.956-0.672
	v-19.649C89.069,322.034,89.487,321.724,89.964,321.776z"/>
<g id="g4730">
	<path id="path3406-3" d="M120.998,352.948v-2.64h-1.36c-0.4,0-0.8,0.08-1.12,0.32c-0.24,0.24-0.4,0.64-0.4,0.96
		c0,0.4,0.16,0.72,0.4,0.96c0.32,0.24,0.72,0.4,1.12,0.32h1.36 M122.038,353.748h-2.4c-0.72,0.08-1.44-0.16-2-0.56
		c-0.88-0.8-0.88-2.16-0.08-3.04l0.08-0.08c0.56-0.4,1.28-0.56,2-0.56h1.36v-2.8h1.04V353.748"/>
	<path id="path3408-9" d="M113.638,351.348c0.48,0,0.96-0.16,1.2-0.56c0.64-0.88,0.64-2.08,0-2.96c-0.64-0.72-1.68-0.72-2.4-0.08
		l-0.08,0.08c-0.32,0.4-0.48,0.96-0.48,1.44c0,0.56,0.16,1.04,0.48,1.44C112.758,351.188,113.158,351.428,113.638,351.348
		 M113.638,352.148c-0.72,0-1.44-0.24-2-0.72c-0.48-0.56-0.8-1.28-0.72-2c-0.08-0.72,0.24-1.44,0.72-2c1.12-0.96,2.88-0.96,4,0
		c0.48,0.56,0.72,1.28,0.72,2c0.08,0.72-0.24,1.44-0.72,2C115.158,351.908,114.438,352.148,113.638,352.148"/>
	<path id="path3410-9" d="M109.958,351.908h-0.96l-1.28-4.08l-1.12,4.16h-1.12l-1.28-4.08l-1.12,4.16h-0.96l1.44-5.28h1.12
		l1.36,4.24l1.2-4.32h1.12L109.958,351.908"/>
	<path id="path3412-4" d="M95.478,349.588v-0.4h4.48c0-0.48-0.24-1.04-0.64-1.36s-0.96-0.48-1.52-0.48c-0.4,0-0.72,0-1.12,0.16
		c-0.4,0.08-0.72,0.24-1.04,0.4v-0.8c0.32-0.16,0.72-0.24,1.04-0.32c0.4-0.08,0.72-0.08,1.12-0.08c0.8-0.08,1.6,0.24,2.24,0.72
		c0.56,0.48,0.88,1.2,0.8,2c0,0.8-0.24,1.52-0.8,2.08c-0.56,0.56-1.36,0.8-2.08,0.8s-1.36-0.24-1.92-0.72
		C95.638,351.028,95.398,350.388,95.478,349.588 M96.358,349.908c0,0.4,0.16,0.8,0.48,1.12s0.72,0.4,1.12,0.4
		c0.48,0,0.96-0.16,1.28-0.4c0.32-0.32,0.56-0.72,0.56-1.12H96.358"/>
	<path id="path3414-3" d="M90.438,351.188c0.08,0.08,0.24,0.08,0.4,0.16c0.16,0,0.24,0,0.4,0c0.48,0,0.96-0.16,1.28-0.48
		c0.32-0.4,0.48-0.88,0.4-1.36v-2.72h0.96v5.28h-0.96v-0.8c-0.16,0.32-0.48,0.56-0.8,0.72c-0.4,0.16-0.8,0.24-1.2,0.24h-0.24h-0.24
		L90.438,351.188"/>
</g>
<g>
	
		<circle fill="none" stroke="#212121" stroke-width="0.4" stroke-linecap="round" stroke-miterlimit="10" cx="369.083" cy="144.117" r="3.5"/>
	
		<circle fill="none" stroke="#212121" stroke-width="0.4" stroke-linecap="round" stroke-miterlimit="10" cx="369.083" cy="239.017" r="3.5"/>
</g>
<path stroke="#000000" stroke-miterlimit="10" d="M61.128,171.771c-2.08,2-3.2,4.88-3.2,8.8v0.72h-3.92v9.2h3.92v24.4h12.32v-24.4
	h7.84v-8.72h-7.84v-1.12c0-2.16,1.12-3.2,3.36-3.2c1.52,0,3.04,0.16,4.48,0.72v-8.4c-2.56-0.72-5.28-1.04-7.92-0.96
	C66.008,168.811,63.288,169.691,61.128,171.771z M83.128,214.891h12.32v-33.68h-12.32V214.891z M82.568,178.011h12.88v-8.72h-12.88
	V178.011z M117.768,180.331c-10.32,0-17.84,7.84-17.84,17.76v0.16c0,10.56,7.92,17.6,18.96,17.6c6.96,0,11.92-2.72,15.28-6.88
	l-6.72-5.44c-2.56,2.4-4.8,3.44-7.76,3.44c-3.84,0-6.56-1.76-7.52-5.6h23.44c0.08-0.56,0-1.68,0-2.4
	C135.528,188.971,129.928,180.331,117.768,180.331L117.768,180.331z M111.928,195.371c0.64-3.84,2.88-6.16,6.08-6.16
	c3.2,0,5.6,2.32,6.08,6.16H111.928z M139.128,214.891h12.32v-45.6h-12.32L139.128,214.891L139.128,214.891z M153.048,180.811
	c0,0,2.16,2.96,4.88,6.72c0.64-1.12,1.44-2.16,2.4-3.04L153.048,180.811z M181.128,185.291c-2.56-3.2-6.56-4.96-10.72-4.88
	c-3.84,0-7.52,1.52-10.16,4.16l18.16,9.12l15.04,21.44v-45.76h-12.32L181.128,185.291L181.128,185.291z M157.768,187.531
	c-1.92,3.2-2.96,6.88-2.88,10.64v0.16c0,10.88,7.28,17.6,15.52,17.6c5.28,0,8-2.48,10.8-5.28v4.4h12.4l-24.64-11.68
	C169.128,203.131,162.568,194.171,157.768,187.531L157.768,187.531z M235.288,181.291h-13.92l-9.92,11.2v-23.2h-12.32v45.6h12.32
	v-7.84l3.36-3.68l7.28,11.44h13.44l-12.48-20.08L235.288,181.291z M237.688,214.891h12.32v-33.68h-12.32L237.688,214.891
	L237.688,214.891z M237.688,178.011h12.88v-8.72h-12.88V178.011z M280.248,191.051v-9.76h-8.4v-8.72h-12.32v8.72h-3.92v9.76h3.92
	v13.52c0,8.08,4.64,11.2,12,11.2c3.04,0.08,6-0.64,8.72-1.92v-9.36c-1.52,0.72-3.2,1.04-4.88,1.12c-2.24,0-3.52-1.04-3.52-3.36
	v-11.2H280.248z M173.928,194.651c-2.24-0.08-4.08,1.6-4.08,3.76c-0.08,2.16,1.68,3.92,3.92,4s4.08-1.6,4.08-3.76v-0.08
	C177.848,196.491,176.088,194.731,173.928,194.651C173.928,194.731,173.928,194.731,173.928,194.651L173.928,194.651z"/>
<path id="rect3808-3_2_" fill="none" stroke="#4D4D4D" stroke-width="0.35" d="M325.936,131.721c0-0.084-0.184-0.168-0.367-0.168
	h-55.231v-4.371c0-0.252-0.092-0.504-0.275-0.756c-0.184-0.252-0.459-0.504-0.734-0.672c-0.367-0.168-0.734-0.336-1.101-0.42
	c-0.459-0.084-0.917-0.168-1.376-0.168h-29.634c-0.459,0-0.917,0.084-1.376,0.168c-0.367,0.084-0.734,0.252-1.101,0.42
	c-0.275,0.168-0.55,0.42-0.734,0.672s-0.275,0.504-0.275,0.756v4.371H106.023v-4.371c0-0.252-0.092-0.504-0.275-0.756
	c-0.184-0.252-0.459-0.504-0.734-0.672c-0.367-0.168-0.734-0.336-1.101-0.42c-0.459-0.084-0.917-0.168-1.284-0.168H72.995
	c-0.459,0-0.917,0.084-1.376,0.168c-0.367,0.084-0.734,0.252-1.101,0.42c-0.275,0.168-0.55,0.42-0.734,0.672
	s-0.275,0.504-0.275,0.756v4.371H14.37c-0.184,0-0.367,0.084-0.367,0.168v121.288c0,0.084,0.184,0.168,0.367,0.168h55.139v4.371
	c0,0.252,0.092,0.588,0.275,0.756c0.184,0.252,0.459,0.504,0.734,0.672c0.367,0.168,0.734,0.336,1.101,0.42
	c0.459,0.084,0.917,0.168,1.284,0.168h29.634c0.459,0,0.917-0.084,1.376-0.168c0.367-0.084,0.734-0.252,1.101-0.42
	c0.275-0.168,0.55-0.42,0.734-0.672c0.184-0.252,0.275-0.504,0.275-0.756v-4.371h127.801v4.371c0,0.252,0.092,0.588,0.275,0.756
	c0.184,0.252,0.459,0.504,0.734,0.672c0.367,0.168,0.734,0.336,1.101,0.42c0.459,0.084,0.917,0.168,1.284,0.168h29.634
	c0.459,0,0.917-0.084,1.376-0.168c0.367-0.084,0.734-0.252,1.101-0.42c0.275-0.168,0.55-0.42,0.734-0.672
	c0.184-0.252,0.275-0.504,0.275-0.756v-4.371h55.231c0.184,0,0.367-0.084,0.367-0.168V131.721z"/>
<path fill="none" stroke="#231F20" stroke-width="0.35" d="M317.574,226.17h-24.6c-1.1,0-2-0.9-2-2l0,0c0-1.1,0.9-2,2-2h24.6
	c1.1,0,2,0.9,2,2l0,0C319.574,225.27,318.674,226.17,317.574,226.17z"/>
<path fill="none" stroke="#231F20" stroke-width="0.35" d="M317.574,232.37h-24.6c-1.1,0-2-0.9-2-2l0,0c0-1.1,0.9-2,2-2h24.6
	c1.1,0,2,0.9,2,2l0,0C319.574,231.57,318.674,232.37,317.574,232.37z"/>
<path fill="none" stroke="#231F20" stroke-width="0.35" d="M317.574,238.67h-24.6c-1.1,0-2-0.9-2-2l0,0c0-1.1,0.9-2,2-2h24.6
	c1.1,0,2,0.9,2,2l0,0C319.574,237.77,318.674,238.67,317.574,238.67z"/>
<path fill="none" stroke="#231F20" stroke-width="0.35" d="M317.574,244.87h-24.6c-1.1,0-2-0.9-2-2l0,0c0-1.1,0.9-2,2-2h24.6
	c1.1,0,2,0.9,2,2l0,0C319.574,244.07,318.674,244.87,317.574,244.87z"/>
<path fill="none" stroke="#231F20" stroke-width="0.35" d="M285.674,226.37h-24.6c-1.1,0-2-0.9-2-2l0,0c0-1.1,0.9-2,2-2h24.6
	c1.1,0,2,0.9,2,2l0,0C287.674,225.57,286.774,226.37,285.674,226.37z"/>
<path fill="none" stroke="#231F20" stroke-width="0.35" d="M285.674,232.67h-24.6c-1.1,0-2-0.9-2-2l0,0c0-1.1,0.9-2,2-2h24.6
	c1.1,0,2,0.9,2,2l0,0C287.674,231.77,286.774,232.67,285.674,232.67z"/>
<path fill="none" stroke="#231F20" stroke-width="0.35" d="M285.674,238.87h-24.6c-1.1,0-2-0.9-2-2l0,0c0-1.1,0.9-2,2-2h24.6
	c1.1,0,2,0.9,2,2l0,0C287.674,238.07,286.774,238.87,285.674,238.87z"/>
<path fill="none" stroke="#231F20" stroke-width="0.35" d="M285.674,245.17h-24.6c-1.1,0-2-0.9-2-2l0,0c0-1.1,0.9-2,2-2h24.6
	c1.1,0,2,0.9,2,2l0,0C287.674,244.27,286.774,245.17,285.674,245.17z"/>
<path fill="none" stroke="#231F20" stroke-width="0.35" d="M253.974,226.37h-24.6c-1.1,0-2-0.9-2-2l0,0c0-1.1,0.9-2,2-2h24.6
	c1.1,0,2,0.9,2,2l0,0C255.874,225.57,255.074,226.37,253.974,226.37z"/>
<path fill="none" stroke="#231F20" stroke-width="0.35" d="M253.974,232.67h-24.6c-1.1,0-2-0.9-2-2l0,0c0-1.1,0.9-2,2-2h24.6
	c1.1,0,2,0.9,2,2l0,0C255.874,231.77,255.074,232.67,253.974,232.67z"/>
<path fill="none" stroke="#231F20" stroke-width="0.35" d="M253.974,238.87h-24.6c-1.1,0-2-0.9-2-2l0,0c0-1.1,0.9-2,2-2h24.6
	c1.1,0,2,0.9,2,2l0,0C255.874,238.07,255.074,238.87,253.974,238.87z"/>
<path fill="none" stroke="#231F20" stroke-width="0.35" d="M253.974,245.17h-24.6c-1.1,0-2-0.9-2-2l0,0c0-1.1,0.9-2,2-2h24.6
	c1.1,0,2,0.9,2,2l0,0C255.874,244.27,255.074,245.17,253.974,245.17z"/>
<path fill="none" stroke="#231F20" stroke-width="0.35" d="M317.474,143.37h-24.6c-1.1,0-2-0.9-2-2l0,0c0-1.1,0.9-2,2-2h24.6
	c1.1,0,2,0.9,2,2l0,0C319.474,142.47,318.574,143.37,317.474,143.37z"/>
<path fill="none" stroke="#231F20" stroke-width="0.35" d="M317.474,149.57h-24.6c-1.1,0-2-0.9-2-2l0,0c0-1.1,0.9-2,2-2h24.6
	c1.1,0,2,0.9,2,2l0,0C319.474,148.67,318.574,149.57,317.474,149.57z"/>
<path fill="none" stroke="#231F20" stroke-width="0.35" d="M317.474,155.87h-24.6c-1.1,0-2-0.9-2-2l0,0c0-1.1,0.9-2,2-2h24.6
	c1.1,0,2,0.9,2,2l0,0C319.474,154.97,318.574,155.87,317.474,155.87z"/>
<path fill="none" stroke="#231F20" stroke-width="0.35" d="M317.474,162.07h-24.6c-1.1,0-2-0.9-2-2l0,0c0-1.1,0.9-2,2-2h24.6
	c1.1,0,2,0.9,2,2l0,0C319.474,161.17,318.574,162.07,317.474,162.07z"/>
<path fill="none" stroke="#231F20" stroke-width="0.35" d="M285.574,143.57h-24.6c-1.1,0-2-0.9-2-2l0,0c0-1.1,0.9-2,2-2h24.6
	c1.1,0,2,0.9,2,2l0,0C287.574,142.67,286.674,143.57,285.574,143.57z"/>
<path fill="none" stroke="#231F20" stroke-width="0.35" d="M285.574,149.87h-24.6c-1.1,0-2-0.9-2-2l0,0c0-1.1,0.9-2,2-2h24.6
	c1.1,0,2,0.9,2,2l0,0C287.574,148.97,286.674,149.87,285.574,149.87z"/>
<path fill="none" stroke="#231F20" stroke-width="0.35" d="M285.574,156.07h-24.6c-1.1,0-2-0.9-2-2l0,0c0-1.1,0.9-2,2-2h24.6
	c1.1,0,2,0.9,2,2l0,0C287.574,155.17,286.674,156.07,285.574,156.07z"/>
<path fill="none" stroke="#231F20" stroke-width="0.35" d="M285.574,162.37h-24.6c-1.1,0-2-0.9-2-2l0,0c0-1.1,0.9-2,2-2h24.6
	c1.1,0,2,0.9,2,2l0,0C287.574,161.47,286.674,162.37,285.574,162.37z"/>
<path fill="none" stroke="#231F20" stroke-width="0.35" d="M253.874,143.57h-24.6c-1.1,0-2-0.9-2-2l0,0c0-1.1,0.9-2,2-2h24.6
	c1.1,0,2,0.9,2,2l0,0C255.774,142.67,254.974,143.57,253.874,143.57z"/>
<path fill="none" stroke="#231F20" stroke-width="0.35" d="M253.874,149.87h-24.6c-1.1,0-2-0.9-2-2l0,0c0-1.1,0.9-2,2-2h24.6
	c1.1,0,2,0.9,2,2l0,0C255.774,148.97,254.974,149.87,253.874,149.87z"/>
<path fill="none" stroke="#231F20" stroke-width="0.35" d="M253.874,156.07h-24.6c-1.1,0-2-0.9-2-2l0,0c0-1.1,0.9-2,2-2h24.6
	c1.1,0,2,0.9,2,2l0,0C255.774,155.17,254.974,156.07,253.874,156.07z"/>
<path fill="none" stroke="#231F20" stroke-width="0.35" d="M253.874,162.37h-24.6c-1.1,0-2-0.9-2-2l0,0c0-1.1,0.9-2,2-2h24.6
	c1.1,0,2,0.9,2,2l0,0C255.774,161.47,254.974,162.37,253.874,162.37z"/>
<rect id="rect2989-7-4-6-0-7-5-7-8-4_1_" x="304.307" y="282.691" fill="none" stroke="#4D4D4D" stroke-width="0.35" width="8.504" height="35.655"/>
<rect id="rect2989-7-4-6-0-9-7-8-3-6-9_1_" x="304.307" y="327.81" fill="none" stroke="#4D4D4D" stroke-width="0.35" width="8.504" height="35.4"/>
<rect id="rect2989-7-4-6-0-7-5-7-8-4_2_" x="175.311" y="282.691" fill="none" stroke="#4D4D4D" stroke-width="0.35" width="8.504" height="35.655"/>
<rect id="rect2989-7-4-6-0-9-7-8-3-6-9_2_" x="175.311" y="327.809" fill="none" stroke="#4D4D4D" stroke-width="0.35" width="8.504" height="35.4"/>
<path fill="none" stroke="#4D4D4D" stroke-width="0.35" d="M311.625,266.642c-2.6,0-4.9,1.43-6.5,3.336
	c-2.1,2.7-5.1,5.004-15.4,5.004h-45.118h-46.713c-10.3,0-13.3-2.303-15.4-5.004c-1.5-1.906-3.8-3.336-6.4-3.336
	c-4.4,0-8,3.733-8,8.34v87.287c0,1.112,0.2,2.224,0.6,3.256c0.4,0.953,1,1.827,1.7,2.621c0.7,0.715,1.5,1.35,2.5,1.747
	c0.9,0.397,2,0.635,3.1,0.635h68.613h45.118h22c1.1,0,2.1-0.238,3.1-0.635c1-0.477,1.8-1.033,2.5-1.747
	c0.8-0.794,1.3-1.668,1.7-2.621c0.4-1.033,0.6-2.144,0.6-3.256v-87.287C319.625,270.375,316.025,266.642,311.625,266.642z"/>
<rect id="rect2989-7-4-6-0-7-5-7-8-4_5_" x="143.107" y="282.452" fill="none" stroke="#4D4D4D" stroke-width="0.35" width="8.504" height="35.655"/>
<rect id="rect2989-7-4-6-0-9-7-8-3-6-9_4_" x="143.107" y="327.571" fill="none" stroke="#4D4D4D" stroke-width="0.35" width="8.504" height="35.4"/>
<rect id="rect2989-7-4-6-0-7-5-7-8-4_4_" x="14.111" y="282.451" fill="none" stroke="#4D4D4D" stroke-width="0.35" width="8.504" height="35.655"/>
<rect id="rect2989-7-4-6-0-9-7-8-3-6-9_3_" x="14.111" y="327.57" fill="none" stroke="#4D4D4D" stroke-width="0.35" width="8.504" height="35.4"/>
<path fill="none" stroke="#4D4D4D" stroke-width="0.35" d="M150.425,266.402c-2.6,0-4.9,1.43-6.5,3.336
	c-2.1,2.7-5.1,5.004-15.4,5.004H83.407H36.694c-10.3,0-13.3-2.303-15.4-5.004c-1.5-1.906-3.8-3.336-6.4-3.336c-4.4,0-8,3.733-8,8.34
	v87.287c0,1.112,0.2,2.224,0.6,3.256c0.4,0.953,1,1.827,1.7,2.621c0.7,0.715,1.5,1.35,2.5,1.747c0.9,0.397,2,0.635,3.1,0.635h68.613
	h45.118h22c1.1,0,2.1-0.238,3.1-0.635c1-0.477,1.8-1.033,2.5-1.747c0.8-0.794,1.3-1.668,1.7-2.621c0.4-1.033,0.6-2.144,0.6-3.256
	v-87.287C158.425,270.135,154.825,266.402,150.425,266.402z"/>
<rect id="rect2989-7-4-6-0-7-5-7-8-4_3_" x="407.533" y="277.964" fill="none" stroke="#4D4D4D" stroke-width="0.35" width="36.85" height="8.504"/>
<g>
	
		<circle fill="none" stroke="#212121" stroke-width="0.4" stroke-linecap="round" stroke-miterlimit="10" cx="636.35" cy="143.655" r="3.5"/>
	
		<circle fill="none" stroke="#212121" stroke-width="0.4" stroke-linecap="round" stroke-miterlimit="10" cx="636.35" cy="238.555" r="3.5"/>
</g>
<g>
	
		<circle fill="none" stroke="#212121" stroke-width="0.4" stroke-linecap="round" stroke-miterlimit="10" cx="618.35" cy="143.655" r="3.5"/>
	
		<circle fill="none" stroke="#212121" stroke-width="0.4" stroke-linecap="round" stroke-miterlimit="10" cx="618.35" cy="238.555" r="3.5"/>
</g>
<rect id="rect2989-7-4-6-0-7-5-7-8-4_7_" x="572.866" y="277.964" fill="none" stroke="#4D4D4D" stroke-width="0.35" width="36.85" height="8.504"/>
<path fill="none" stroke="#4D4D4D" stroke-width="0.35" d="M324.3,271.097"/>
<path fill="none" stroke="#4D4D4D" stroke-width="0.35" d="M337.031,264.045"/>
<path fill="none" stroke="#4D4D4D" stroke-width="0.35" d="M674.496,351.874c-0.4,0-0.8,0-1.1,0
	c-2.162-0.047-4.319,0.002-6.47,0.091v0.144c-1.417,0.096-2.83,0.209-4.23,0.365c-6.3,0.7-20.3,4.6-27.4,5.5
	c-7.1,0.9-18.6,0.9-18.6,0.9c-1.113,0.111-2.102-0.769-2.002-1.95c0.081-0.951,0.944-1.65,1.899-1.65h0.103c0,0,11.4-0.1,18.4-0.9
	s21.1-4.7,27.4-5.4c1.59-0.151,3.179-0.28,4.763-0.392c0.892-0.063,1.779-0.106,2.667-0.153v-0.119
	c0.692-0.019,1.384-0.036,2.07-0.036c0.8,0,1.3,0,1.3,0v-21.5c0-0.4-0.1-0.9-0.3-1.3s-0.5-0.8-0.8-1.1c-0.3-0.3-0.8-0.6-1.2-0.7
	c-0.382-0.153-0.715-0.229-1.07-0.265v-0.035h-0.33h-2.337h-0.333h-2.53l0.05-9.738h2.48h0.333h2.387h0.28v-0.024
	c0.402-0.028,0.796-0.095,1.12-0.176c0.4-0.2,0.8-0.4,1.2-0.7c0.3-0.3,0.6-0.7,0.8-1.1s0.3-0.9,0.3-1.3v-25.1
	c2.9,0.3,5.5-1.8,5.8-4.8s-1.8-5.5-4.8-5.8c-0.3,0-0.7,0-1,0v3.5h-3.42h-2.667h-0.333h-2.58v-3.7c0-0.5-0.1-0.9-0.3-1.3
	s-0.5-0.8-0.8-1.1c-0.4-0.3-0.8-0.6-1.2-0.7c-0.5-0.2-0.9-0.3-2.4-0.2h-61.012h-91.5h-151.66c-0.5,0-1,0.1-1.5,0.2
	c-0.4,0.2-0.8,0.4-1.2,0.7c-0.3,0.3-0.6,0.7-0.8,1.1c-0.2,0.4-0.3,0.9-0.3,1.3v3.8h-2.999h-0.083h-2.917h-3.001v-3.6
	c-2.9-0.3-5.5,1.8-5.8,4.8c-0.3,2.9,1.8,5.5,4.8,5.8c0.3,0,0.7,0,1,0v25.1c0,0.4,0.1,0.9,0.3,1.3c0.2,0.4,0.5,0.8,0.8,1.1
	c0.3,0.3,0.8,0.6,1.2,0.7c0.234,0.093,0.467,0.16,0.701,0.21v0.09h0.799h2.118h0.083h2.999l-0.05,9.738h-2.949h-0.083h-2.068h-0.849
	v0.081c-0.217,0.035-0.434,0.076-0.651,0.119c-0.4,0.2-0.8,0.4-1.2,0.7c-0.3,0.3-0.6,0.7-0.8,1.1c-0.2,0.4-0.3,0.9-0.3,1.3v21.5
	c0.983-0.021,1.966-0.022,2.951-0.007v0.088c0.97,0.041,1.942,0.089,2.917,0.15c1.669,0.104,3.343,0.225,5.032,0.369
	c6.3,0.7,20.3,4.6,27.4,5.5s18.5,0.9,18.5,0.9c1.1,0,2,0.8,2,1.8s-0.9,1.9-2,1.8c0,0-11.5,0-18.6-0.9s-21.1-4.7-27.4-5.5
	c-1.626-0.177-3.239-0.302-4.849-0.403v-0.131c-1.943-0.071-3.888-0.108-5.851-0.066c-2.9-0.3-5.5,1.8-5.8,4.8
	c-0.312,3.017,1.973,5.709,5.167,5.825c0.25-0.233,0.382-0.356,0.633-0.589v-3.036h2.851h2.917h0.083h3.149v3.8
	c0,0.5,0.1,0.9,0.3,1.3c0.2,0.4,0.5,0.8,0.8,1.1c0.4,0.3,0.8,0.5,1.2,0.7c0.5,0.2,1,0.3,1.5,0.3c1.5,0,2.6-1.5,4-1.5s2.5,1.5,4,1.5
	s2.6-1.5,4-1.5s2.5,1.5,4,1.5s2.6-1.5,4-1.5s2.6,1.5,4,1.5s2.5-1.5,4-1.5s2.6,1.5,4,1.5h42.008h65.667h12.588h24.746h96.062
	c1.5,0,2.5-1.5,4-1.5s2.6,1.5,4,1.5s2.6-1.5,4-1.5s2.5,1.5,4,1.5s2.5-1.5,4-1.5s2.5,1.5,4,1.5s2.5-1.5,4-1.5s2.6,1.5,4,1.5
	c0.5,0,1-0.1,1.4-0.3c0.4-0.2,0.8-0.4,1.2-0.7c0.3-0.3,0.6-0.7,0.8-1.1s0.3-0.9,0.3-1.3v-3.8h2.53h0.333h2.667h3.47v3.5
	c2.9,0.3,5.5-1.8,5.8-4.7S677.395,352.174,674.496,351.874z"/>
<path id="rect3808-3_1_" fill="none" stroke="#4D4D4D" stroke-width="0.35" d="M660.058,131.807c0-0.084-0.185-0.168-0.37-0.168
	h-55.717v-4.371c0-0.252-0.093-0.504-0.278-0.756s-0.463-0.504-0.74-0.672c-0.37-0.168-0.74-0.336-1.111-0.42
	c-0.463-0.084-0.926-0.168-1.388-0.168h-29.895c-0.463,0-0.926,0.084-1.388,0.168c-0.37,0.084-0.74,0.252-1.111,0.42
	c-0.278,0.168-0.555,0.42-0.74,0.672s-0.278,0.504-0.278,0.756v4.371H438.206v-4.371c0-0.252-0.093-0.504-0.278-0.756
	c-0.185-0.252-0.463-0.504-0.74-0.672c-0.37-0.168-0.74-0.336-1.111-0.42c-0.463-0.084-0.926-0.168-1.296-0.168h-29.895
	c-0.463,0-0.926,0.084-1.388,0.168c-0.37,0.084-0.74,0.252-1.111,0.42c-0.278,0.168-0.555,0.42-0.74,0.672s-0.278,0.504-0.278,0.756
	v4.371h-55.624c-0.185,0-0.37,0.084-0.37,0.168v121.288c0,0.084,0.185,0.168,0.37,0.168h55.625v4.371
	c0,0.252,0.093,0.588,0.278,0.756c0.185,0.252,0.463,0.504,0.74,0.672c0.37,0.168,0.74,0.336,1.111,0.42
	c0.463,0.084,0.926,0.168,1.296,0.168h29.895c0.463,0,0.926-0.084,1.388-0.168c0.37-0.084,0.74-0.252,1.111-0.42
	c0.278-0.168,0.555-0.42,0.74-0.672c0.185-0.252,0.278-0.504,0.278-0.756v-4.371h128.928v4.371c0,0.252,0.093,0.588,0.278,0.756
	c0.185,0.252,0.463,0.504,0.74,0.672c0.37,0.168,0.74,0.336,1.111,0.42c0.463,0.084,0.926,0.168,1.296,0.168h29.895
	c0.463,0,0.926-0.084,1.388-0.168c0.37-0.084,0.74-0.252,1.111-0.42c0.278-0.168,0.555-0.42,0.74-0.672
	c0.185-0.252,0.278-0.504,0.278-0.756v-4.371h55.717c0.185,0,0.37-0.084,0.37-0.168V131.807H660.058z"/>
<rect id="rect2989-7-4-6-0-7-5-7-8-4_8_" x="407.533" y="350.583" fill="none" stroke="#4D4D4D" stroke-width="0.35" width="36.85" height="8.504"/>
<rect id="rect2989-7-4-6-0-7-5-7-8-4_6_" x="572.866" y="350.583" fill="none" stroke="#4D4D4D" stroke-width="0.35" width="36.85" height="8.504"/>
<path fill="none" stroke="#231F20" stroke-width="0.35" d="M288.161,327.97h-24.6c-1.1,0-2-0.9-2-2l0,0c0-1.1,0.9-2,2-2h24.6
	c1.1,0,2,0.9,2,2l0,0C290.161,327.07,289.261,327.97,288.161,327.97z"/>
<path fill="none" stroke="#231F20" stroke-width="0.35" d="M288.161,334.17h-24.6c-1.1,0-2-0.9-2-2l0,0c0-1.1,0.9-2,2-2h24.6
	c1.1,0,2,0.9,2,2l0,0C290.161,333.27,289.261,334.17,288.161,334.17z"/>
<path fill="none" stroke="#231F20" stroke-width="0.35" d="M288.161,340.47h-24.6c-1.1,0-2-0.9-2-2l0,0c0-1.1,0.9-2,2-2h24.6
	c1.1,0,2,0.9,2,2l0,0C290.161,339.57,289.261,340.47,288.161,340.47z"/>
<path fill="none" stroke="#231F20" stroke-width="0.35" d="M288.161,346.67h-24.6c-1.1,0-2-0.9-2-2l0,0c0-1.1,0.9-2,2-2h24.6
	c1.1,0,2,0.9,2,2l0,0C290.161,345.77,289.261,346.67,288.161,346.67z"/>
<path fill="none" stroke="#231F20" stroke-width="0.35" d="M256.261,328.17h-24.6c-1.1,0-2-0.9-2-2l0,0c0-1.1,0.9-2,2-2h24.6
	c1.1,0,2,0.9,2,2l0,0C258.261,327.27,257.361,328.17,256.261,328.17z"/>
<path fill="none" stroke="#231F20" stroke-width="0.35" d="M256.261,334.47h-24.6c-1.1,0-2-0.9-2-2l0,0c0-1.1,0.9-2,2-2h24.6
	c1.1,0,2,0.9,2,2l0,0C258.261,333.57,257.361,334.47,256.261,334.47z"/>
<path fill="none" stroke="#231F20" stroke-width="0.35" d="M256.261,340.67h-24.6c-1.1,0-2-0.9-2-2l0,0c0-1.1,0.9-2,2-2h24.6
	c1.1,0,2,0.9,2,2l0,0C258.261,339.77,257.361,340.67,256.261,340.67z"/>
<path fill="none" stroke="#231F20" stroke-width="0.35" d="M256.261,346.97h-24.6c-1.1,0-2-0.9-2-2l0,0c0-1.1,0.9-2,2-2h24.6
	c1.1,0,2,0.9,2,2l0,0C258.261,346.07,257.361,346.97,256.261,346.97z"/>
<path fill="none" stroke="#231F20" stroke-width="0.35" d="M224.561,328.17h-24.6c-1.1,0-2-0.9-2-2l0,0c0-1.1,0.9-2,2-2h24.6
	c1.1,0,2,0.9,2,2l0,0C226.461,327.27,225.661,328.17,224.561,328.17z"/>
<path fill="none" stroke="#231F20" stroke-width="0.35" d="M224.561,334.47h-24.6c-1.1,0-2-0.9-2-2l0,0c0-1.1,0.9-2,2-2h24.6
	c1.1,0,2,0.9,2,2l0,0C226.461,333.57,225.661,334.47,224.561,334.47z"/>
<path fill="none" stroke="#231F20" stroke-width="0.35" d="M224.561,340.67h-24.6c-1.1,0-2-0.9-2-2l0,0c0-1.1,0.9-2,2-2h24.6
	c1.1,0,2,0.9,2,2l0,0C226.461,339.77,225.661,340.67,224.561,340.67z"/>
<path fill="none" stroke="#231F20" stroke-width="0.35" d="M224.561,346.97h-24.6c-1.1,0-2-0.9-2-2l0,0c0-1.1,0.9-2,2-2h24.6
	c1.1,0,2,0.9,2,2l0,0C226.461,346.07,225.661,346.97,224.561,346.97z"/>
<path fill="none" stroke="#231F20" stroke-width="0.35" d="M288.228,302.77h-24.6c-1.1,0-2-0.9-2-2l0,0c0-1.1,0.9-2,2-2h24.6
	c1.1,0,2,0.9,2,2l0,0C290.228,301.87,289.328,302.77,288.228,302.77z"/>
<path fill="none" stroke="#231F20" stroke-width="0.35" d="M288.228,308.97h-24.6c-1.1,0-2-0.9-2-2l0,0c0-1.1,0.9-2,2-2h24.6
	c1.1,0,2,0.9,2,2l0,0C290.228,308.07,289.328,308.97,288.228,308.97z"/>
<path fill="none" stroke="#231F20" stroke-width="0.35" d="M288.228,315.27h-24.6c-1.1,0-2-0.9-2-2l0,0c0-1.1,0.9-2,2-2h24.6
	c1.1,0,2,0.9,2,2l0,0C290.228,314.37,289.328,315.27,288.228,315.27z"/>
<path fill="none" stroke="#231F20" stroke-width="0.35" d="M288.228,321.47h-24.6c-1.1,0-2-0.9-2-2l0,0c0-1.1,0.9-2,2-2h24.6
	c1.1,0,2,0.9,2,2l0,0C290.228,320.57,289.328,321.47,288.228,321.47z"/>
<path fill="none" stroke="#231F20" stroke-width="0.35" d="M256.328,302.97h-24.6c-1.1,0-2-0.9-2-2l0,0c0-1.1,0.9-2,2-2h24.6
	c1.1,0,2,0.9,2,2l0,0C258.328,302.07,257.428,302.97,256.328,302.97z"/>
<path fill="none" stroke="#231F20" stroke-width="0.35" d="M256.328,309.27h-24.6c-1.1,0-2-0.9-2-2l0,0c0-1.1,0.9-2,2-2h24.6
	c1.1,0,2,0.9,2,2l0,0C258.328,308.37,257.428,309.27,256.328,309.27z"/>
<path fill="none" stroke="#231F20" stroke-width="0.35" d="M256.328,315.47h-24.6c-1.1,0-2-0.9-2-2l0,0c0-1.1,0.9-2,2-2h24.6
	c1.1,0,2,0.9,2,2l0,0C258.328,314.57,257.428,315.47,256.328,315.47z"/>
<path fill="none" stroke="#231F20" stroke-width="0.35" d="M256.328,321.77h-24.6c-1.1,0-2-0.9-2-2l0,0c0-1.1,0.9-2,2-2h24.6
	c1.1,0,2,0.9,2,2l0,0C258.328,320.87,257.428,321.77,256.328,321.77z"/>
<path fill="none" stroke="#231F20" stroke-width="0.35" d="M224.628,302.97h-24.6c-1.1,0-2-0.9-2-2l0,0c0-1.1,0.9-2,2-2h24.6
	c1.1,0,2,0.9,2,2l0,0C226.528,302.07,225.728,302.97,224.628,302.97z"/>
<path fill="none" stroke="#231F20" stroke-width="0.35" d="M224.628,309.27h-24.6c-1.1,0-2-0.9-2-2l0,0c0-1.1,0.9-2,2-2h24.6
	c1.1,0,2,0.9,2,2l0,0C226.528,308.37,225.728,309.27,224.628,309.27z"/>
<path fill="none" stroke="#231F20" stroke-width="0.35" d="M224.628,315.47h-24.6c-1.1,0-2-0.9-2-2l0,0c0-1.1,0.9-2,2-2h24.6
	c1.1,0,2,0.9,2,2l0,0C226.528,314.57,225.728,315.47,224.628,315.47z"/>
<path fill="none" stroke="#231F20" stroke-width="0.35" d="M224.628,321.77h-24.6c-1.1,0-2-0.9-2-2l0,0c0-1.1,0.9-2,2-2h24.6
	c1.1,0,2,0.9,2,2l0,0C226.528,320.87,225.728,321.77,224.628,321.77z"/>
<g>
	
		<circle fill="none" stroke="#212121" stroke-width="0.4" stroke-linecap="round" stroke-miterlimit="10" cx="33.482" cy="17.3" r="3.5"/>
	
		<circle fill="none" stroke="#212121" stroke-width="0.4" stroke-linecap="round" stroke-miterlimit="10" cx="33.482" cy="112.2" r="3.5"/>
</g>
<g>
	
		<circle fill="none" stroke="#212121" stroke-width="0.4" stroke-linecap="round" stroke-miterlimit="10" cx="300.749" cy="16.838" r="3.5"/>
	
		<circle fill="none" stroke="#212121" stroke-width="0.4" stroke-linecap="round" stroke-miterlimit="10" cx="300.749" cy="111.738" r="3.5"/>
</g>
<g>
	
		<circle fill="none" stroke="#212121" stroke-width="0.4" stroke-linecap="round" stroke-miterlimit="10" cx="282.749" cy="16.838" r="3.5"/>
	
		<circle fill="none" stroke="#212121" stroke-width="0.4" stroke-linecap="round" stroke-miterlimit="10" cx="282.749" cy="111.738" r="3.5"/>
</g>
<path fill="none" stroke="#000000" stroke-width="0.25" stroke-miterlimit="10" d="M301.363,117.864H34.824c-6.6,0-12-5.4-12-12
	V22.956c0-6.6,5.4-12,12-12h266.539c6.6,0,12,5.4,12,12v82.908C313.363,112.464,307.963,117.864,301.363,117.864z"/>
<path fill="none" stroke="#000000" stroke-width="0.25" stroke-miterlimit="10" d="M205.328,111.738H60.042c-6.6,0-12-5.4-12-12
	v-70.9c0-6.6,5.4-12,12-12h145.287c6.6,0,12,5.4,12,12v70.9C217.328,106.338,211.928,111.738,205.328,111.738z"/>
<rect id="rect2989-7-4-6-0-7-5-7-8-4_16_" x="407.533" y="27.667" fill="none" stroke="#4D4D4D" stroke-width="0.35" width="36.85" height="8.504"/>
<rect id="rect2989-7-4-6-0-7-5-7-8-4_15_" x="572.866" y="27.667" fill="none" stroke="#4D4D4D" stroke-width="0.35" width="36.85" height="8.504"/>
<path fill="none" stroke="#4D4D4D" stroke-width="0.35" d="M674.495,101.577c-0.4,0-0.8,0-1.1,0
	c-2.162-0.047-4.319,0.002-6.47,0.091v0.144c-1.417,0.096-2.83,0.209-4.23,0.365c-6.3,0.7-20.3,4.6-27.4,5.5
	c-7.1,0.9-18.6,0.9-18.6,0.9c-1.113,0.111-2.102-0.769-2.002-1.95c0.081-0.951,0.944-1.65,1.899-1.65h0.103c0,0,11.4-0.1,18.4-0.9
	s21.1-4.7,27.4-5.4c1.59-0.151,3.179-0.28,4.763-0.392c0.892-0.063,1.779-0.106,2.667-0.153v-0.119
	c0.692-0.019,1.384-0.036,2.07-0.036c0.8,0,1.3,0,1.3,0v-21.5c0-0.4-0.1-0.9-0.3-1.3s-0.5-0.8-0.8-1.1c-0.3-0.3-0.8-0.6-1.2-0.7
	c-0.382-0.153-0.715-0.229-1.07-0.265v-0.035h-0.33h-2.337h-0.333h-2.53l0.05-9.738h2.48h0.333h2.387h0.28v-0.024
	c0.402-0.028,0.796-0.095,1.12-0.176c0.4-0.2,0.8-0.4,1.2-0.7c0.3-0.3,0.6-0.7,0.8-1.1s0.3-0.9,0.3-1.3v-25.1
	c2.9,0.3,5.5-1.8,5.8-4.8s-1.8-5.5-4.8-5.8c-0.3,0-0.7,0-1,0v3.5h-3.42h-2.667h-0.333h-2.58v-3.7c0-0.5-0.1-0.9-0.3-1.3
	s-0.5-0.8-0.8-1.1c-0.4-0.3-0.8-0.6-1.2-0.7c-0.5-0.2-0.9-0.3-2.4-0.2h-61.012h-91.5H355.474c-0.5,0-1,0.1-1.5,0.2
	c-0.4,0.2-0.8,0.4-1.2,0.7c-0.3,0.3-0.6,0.7-0.8,1.1c-0.2,0.4-0.3,0.9-0.3,1.3v3.8h-2.999h-0.083h-2.917h-3.001v-3.6
	c-2.9-0.3-5.5,1.8-5.8,4.8c-0.3,2.9,1.8,5.5,4.8,5.8c0.3,0,0.7,0,1,0v25.1c0,0.4,0.1,0.9,0.3,1.3c0.2,0.4,0.5,0.8,0.8,1.1
	c0.3,0.3,0.8,0.6,1.2,0.7c0.234,0.093,0.467,0.16,0.701,0.21v0.09h0.799h2.118h0.083h2.999l-0.05,9.738h-2.949h-0.083h-2.068h-0.849
	v0.081c-0.217,0.035-0.434,0.076-0.651,0.119c-0.4,0.2-0.8,0.4-1.2,0.7c-0.3,0.3-0.6,0.7-0.8,1.1c-0.2,0.4-0.3,0.9-0.3,1.3v21.5
	c0.983-0.021,1.966-0.022,2.951-0.007v0.088c0.97,0.041,1.942,0.089,2.917,0.15c1.669,0.104,3.343,0.225,5.032,0.369
	c6.3,0.7,20.3,4.6,27.4,5.5s18.5,0.9,18.5,0.9c1.1,0,2,0.8,2,1.8s-0.9,1.9-2,1.8c0,0-11.5,0-18.6-0.9s-21.1-4.7-27.4-5.5
	c-1.626-0.177-3.239-0.302-4.849-0.403v-0.131c-1.943-0.071-3.888-0.108-5.851-0.066c-2.9-0.3-5.5,1.8-5.8,4.8
	c-0.312,3.017,1.973,5.709,5.167,5.825c0.25-0.233,0.382-0.356,0.633-0.589v-3.036h2.851h2.917h0.083h3.149v3.8
	c0,0.5,0.1,0.9,0.3,1.3c0.2,0.4,0.5,0.8,0.8,1.1c0.4,0.3,0.8,0.5,1.2,0.7c0.5,0.2,1,0.3,1.5,0.3c1.5,0,2.6-1.5,4-1.5s2.5,1.5,4,1.5
	s2.6-1.5,4-1.5s2.5,1.5,4,1.5s2.6-1.5,4-1.5s2.6,1.5,4,1.5s2.5-1.5,4-1.5s2.6,1.5,4,1.5h42.008h65.667h12.588h24.746h96.062
	c1.5,0,2.5-1.5,4-1.5s2.6,1.5,4,1.5s2.6-1.5,4-1.5s2.5,1.5,4,1.5s2.5-1.5,4-1.5s2.5,1.5,4,1.5s2.5-1.5,4-1.5s2.6,1.5,4,1.5
	c0.5,0,1-0.1,1.4-0.3c0.4-0.2,0.8-0.4,1.2-0.7c0.3-0.3,0.6-0.7,0.8-1.1s0.3-0.9,0.3-1.3v-3.8h2.53h0.333h2.667h3.47v3.5
	c2.9,0.3,5.5-1.8,5.8-4.7S677.395,101.877,674.495,101.577z"/>
<rect id="rect2989-7-4-6-0-7-5-7-8-4_14_" x="407.533" y="100.286" fill="none" stroke="#4D4D4D" stroke-width="0.35" width="36.85" height="8.504"/>
<rect id="rect2989-7-4-6-0-7-5-7-8-4_13_" x="572.866" y="100.286" fill="none" stroke="#4D4D4D" stroke-width="0.35" width="36.85" height="8.504"/>
<path fill="none" stroke="#231F20" stroke-width="0.35" d="M648.617,323.835h-24.6c-1.1,0-2-0.9-2-2l0,0c0-1.1,0.9-2,2-2h24.6
	c1.1,0,2,0.9,2,2l0,0C650.617,322.935,649.717,323.835,648.617,323.835z"/>
<path fill="none" stroke="#231F20" stroke-width="0.35" d="M648.617,330.035h-24.6c-1.1,0-2-0.9-2-2l0,0c0-1.1,0.9-2,2-2h24.6
	c1.1,0,2,0.9,2,2l0,0C650.617,329.135,649.717,330.035,648.617,330.035z"/>
<path fill="none" stroke="#231F20" stroke-width="0.35" d="M648.617,336.335h-24.6c-1.1,0-2-0.9-2-2l0,0c0-1.1,0.9-2,2-2h24.6
	c1.1,0,2,0.9,2,2l0,0C650.617,335.435,649.717,336.335,648.617,336.335z"/>
<path fill="none" stroke="#231F20" stroke-width="0.35" d="M648.617,342.535h-24.6c-1.1,0-2-0.9-2-2l0,0c0-1.1,0.9-2,2-2h24.6
	c1.1,0,2,0.9,2,2l0,0C650.617,341.635,649.717,342.535,648.617,342.535z"/>
<path fill="none" stroke="#231F20" stroke-width="0.35" d="M648.684,298.635h-24.6c-1.1,0-2-0.9-2-2l0,0c0-1.1,0.9-2,2-2h24.6
	c1.1,0,2,0.9,2,2l0,0C650.684,297.735,649.784,298.635,648.684,298.635z"/>
<path fill="none" stroke="#231F20" stroke-width="0.35" d="M648.684,304.835h-24.6c-1.1,0-2-0.9-2-2l0,0c0-1.1,0.9-2,2-2h24.6
	c1.1,0,2,0.9,2,2l0,0C650.684,303.935,649.784,304.835,648.684,304.835z"/>
<path fill="none" stroke="#231F20" stroke-width="0.35" d="M648.684,311.135h-24.6c-1.1,0-2-0.9-2-2l0,0c0-1.1,0.9-2,2-2h24.6
	c1.1,0,2,0.9,2,2l0,0C650.684,310.235,649.784,311.135,648.684,311.135z"/>
<path fill="none" stroke="#231F20" stroke-width="0.35" d="M648.684,317.335h-24.6c-1.1,0-2-0.9-2-2l0,0c0-1.1,0.9-2,2-2h24.6
	c1.1,0,2,0.9,2,2l0,0C650.684,316.435,649.784,317.335,648.684,317.335z"/>
<path fill="none" stroke="#231F20" stroke-width="0.35" d="M647.818,73.538h-24.6c-1.1,0-2-0.9-2-2l0,0c0-1.1,0.9-2,2-2h24.6
	c1.1,0,2,0.9,2,2l0,0C649.818,72.638,648.918,73.538,647.818,73.538z"/>
<path fill="none" stroke="#231F20" stroke-width="0.35" d="M647.818,79.738h-24.6c-1.1,0-2-0.9-2-2l0,0c0-1.1,0.9-2,2-2h24.6
	c1.1,0,2,0.9,2,2l0,0C649.818,78.838,648.918,79.738,647.818,79.738z"/>
<path fill="none" stroke="#231F20" stroke-width="0.35" d="M647.818,86.038h-24.6c-1.1,0-2-0.9-2-2l0,0c0-1.1,0.9-2,2-2h24.6
	c1.1,0,2,0.9,2,2l0,0C649.818,85.138,648.918,86.038,647.818,86.038z"/>
<path fill="none" stroke="#231F20" stroke-width="0.35" d="M647.818,92.238h-24.6c-1.1,0-2-0.9-2-2l0,0c0-1.1,0.9-2,2-2h24.6
	c1.1,0,2,0.9,2,2l0,0C649.818,91.338,648.918,92.238,647.818,92.238z"/>
<path fill="none" stroke="#231F20" stroke-width="0.35" d="M647.885,48.338h-24.6c-1.1,0-2-0.9-2-2l0,0c0-1.1,0.9-2,2-2h24.6
	c1.1,0,2,0.9,2,2l0,0C649.885,47.438,648.986,48.338,647.885,48.338z"/>
<path fill="none" stroke="#231F20" stroke-width="0.35" d="M647.885,54.538h-24.6c-1.1,0-2-0.9-2-2l0,0c0-1.1,0.9-2,2-2h24.6
	c1.1,0,2,0.9,2,2l0,0C649.885,53.638,648.986,54.538,647.885,54.538z"/>
<path fill="none" stroke="#231F20" stroke-width="0.35" d="M647.885,60.838h-24.6c-1.1,0-2-0.9-2-2l0,0c0-1.1,0.9-2,2-2h24.6
	c1.1,0,2,0.9,2,2l0,0C649.885,59.938,648.986,60.838,647.885,60.838z"/>
<path fill="none" stroke="#231F20" stroke-width="0.35" d="M647.885,67.038h-24.6c-1.1,0-2-0.9-2-2l0,0c0-1.1,0.9-2,2-2h24.6
	c1.1,0,2,0.9,2,2l0,0C649.885,66.138,648.986,67.038,647.885,67.038z"/>
<path fill="none" stroke="#4D4D4D" stroke-width="0.35" d="M342.9,274.094"/>
<path fill="none" stroke="#4D4D4D" stroke-width="0.35" d="M664.9,125.321"/>
</svg>
